<?xml version="1.0" encoding="utf-8"?>
<!-- Generator: Adobe Illustrator 24.2.0, SVG Export Plug-In . SVG Version: 6.00 Build 0)  -->
<svg version="1.1" id="Layer_1" xmlns="http://www.w3.org/2000/svg" xmlns:xlink="http://www.w3.org/1999/xlink" x="0px" y="0px"
	 viewBox="0 0 132 145" style="enable-background:new 0 0 132 145;" xml:space="preserve">
<style type="text/css">
	.st0{fill:#231F20;}
</style>
<polygon class="st0" points="130.4,89.8 66.1,109.5 1.8,89.8 1.8,104.4 42.3,116.8 1.8,129.2 1.8,143.8 66.1,124.1 130.4,143.8 
	130.4,129.2 89.9,116.8 130.4,104.4 "/>
<path class="st0" d="M130.4,64.2V47.6l-27.8,8.5v-3.9l19.3-5.9v-45L103,17.5H29.2L10.3,1.3v45l19.3,5.9v3.9L1.8,47.6v16.6l27.8,8.5
	v3.9L1.8,68.1V86l37.7,11.6L64.2,86v-7.1l-14-9.6H82l-14,9.6V86l24.7,11.6L130.4,86V68.1l-27.8,8.5v-3.9L130.4,64.2z M54.5,50.6
	l-22.4-6.9V38l22.4,6.9V50.6z M100.1,43.7l-22.4,6.9v-5.8l22.4-6.9V43.7z"/>
</svg>
